HIERARCHY
ROOT Hips
{
	OFFSET 0.000000 0.000000 0.000000
	CHANNELS 6 Xposition Yposition Zposition Xrotation Yrotation Zrotation
	JOINT LeftUpLeg_virtual
	{
		OFFSET 0.000000 0.000000 0.000000
		CHANNELS 3 Xrotation Yrotation Zrotation
		JOINT LeftUpLeg
		{
			OFFSET 13.026900 -6.336304 -1.092800
			CHANNELS 3 Xrotation Yrotation Zrotation
			JOINT LeftLeg
			{
				OFFSET 0.524474 -46.096886 9.782700
				CHANNELS 3 Xrotation Yrotation Zrotation
				JOINT LeftFoot
				{
					OFFSET -0.524474 -53.427422 -12.948200
					CHANNELS 3 Xrotation Yrotation Zrotation
					JOINT LeftToeBase
					{
						OFFSET 0.192200 -14.009700 16.364100
						CHANNELS 3 Xrotation Yrotation Zrotation
						JOINT LeftToe_End
						{
							OFFSET -1.784700 -0.561700 9.474800
							CHANNELS 3 Xrotation Yrotation Zrotation
							End Site
							{
								OFFSET 0 0 0
							}
						}
					}
				}
			}
		}
	}
	JOINT RightUpLeg_virtual
	{
		OFFSET 0.000000 0.000000 0.000000
		CHANNELS 3 Xrotation Yrotation Zrotation
		JOINT RightUpLeg
		{
			OFFSET -12.883000 -6.336304 -1.092800
			CHANNELS 3 Xrotation Yrotation Zrotation
			JOINT RightLeg
			{
				OFFSET -0.524587 -46.096825 9.782800
				CHANNELS 3 Xrotation Yrotation Zrotation
				JOINT RightFoot
				{
					OFFSET 0.524587 -53.427383 -12.948300
					CHANNELS 3 Xrotation Yrotation Zrotation
					JOINT RightToeBase
					{
						OFFSET -0.192200 -14.009700 16.364100
						CHANNELS 3 Xrotation Yrotation Zrotation
						JOINT RightToe_End
						{
							OFFSET 1.784700 -0.561700 9.474800
							CHANNELS 3 Xrotation Yrotation Zrotation
							End Site
							{
								OFFSET 0 0 0
							}
						}
					}
				}
			}
		}
	}
	JOINT Spine_virtual
	{
		OFFSET 0.000000 0.000000 0.000000
		CHANNELS 3 Xrotation Yrotation Zrotation
		JOINT Spine
		{
			OFFSET 0.072000 7.257294 -0.789700
			CHANNELS 3 Xrotation Yrotation Zrotation
			JOINT Spine1
			{
				OFFSET 0.000000 12.508769 -0.658067
				CHANNELS 3 Xrotation Yrotation Zrotation
				JOINT Spine1_split
				{
					OFFSET 0.000000 12.508769 -0.658067
					CHANNELS 3 Xrotation Yrotation Zrotation
					JOINT Spine2
					{
						OFFSET 0.000000 12.508769 -0.658067
						CHANNELS 3 Xrotation Yrotation Zrotation
						JOINT Neck_virtual
						{
							OFFSET 0.000000 0.000000 0.000000
							CHANNELS 3 Xrotation Yrotation Zrotation
							JOINT Neck
							{
								OFFSET 0.000000 14.033295 7.520400
								CHANNELS 3 Xrotation Yrotation Zrotation
								JOINT Head
								{
									OFFSET 0.000000 8.198502 5.703100
									CHANNELS 3 Xrotation Yrotation Zrotation
									JOINT HeadTop_End
									{
										OFFSET 0.000000 17.760803 13.332701
										CHANNELS 3 Xrotation Yrotation Zrotation
										End Site
										{
											OFFSET 0 0 0
										}
									}
								}
							}
						}
						JOINT LeftShoulder_virtual
						{
							OFFSET 0.000000 0.000000 0.000000
							CHANNELS 3 Xrotation Yrotation Zrotation
							JOINT LeftShoulder
							{
								OFFSET 6.292450 5.785301 -0.669000
								CHANNELS 3 Xrotation Yrotation Zrotation
								JOINT LeftShoulder_split
								{
									OFFSET 6.292450 5.785301 -0.669000
									CHANNELS 3 Xrotation Yrotation Zrotation
									JOINT LeftArm
									{
										OFFSET 13.907140 -6.093903 1.965100
										CHANNELS 3 Xrotation Yrotation Zrotation
										JOINT LeftForeArm
										{
											OFFSET 34.140198 0.000000 0.000000
											CHANNELS 3 Xrotation Yrotation Zrotation
											JOINT LeftHand
											{
												OFFSET 40.960209 0.000000 0.000000
												CHANNELS 3 Xrotation Yrotation Zrotation
												End Site
												{
													OFFSET 0 0 0
												}
											}
										}
									}
								}
							}
						}
						JOINT RightShoulder_virtual
						{
							OFFSET 0.000000 0.000000 0.000000
							CHANNELS 3 Xrotation Yrotation Zrotation
							JOINT RightShoulder
							{
								OFFSET -6.292450 5.785301 -0.669000
								CHANNELS 3 Xrotation Yrotation Zrotation
								JOINT RightShoulder_split
								{
									OFFSET -6.292450 5.785301 -0.669000
									CHANNELS 3 Xrotation Yrotation Zrotation
									JOINT RightArm
									{
										OFFSET -13.907140 -6.093903 1.965100
										CHANNELS 3 Xrotation Yrotation Zrotation
										JOINT RightForeArm
										{
											OFFSET -34.140198 0.000000 0.000000
											CHANNELS 3 Xrotation Yrotation Zrotation
											JOINT RightHand
											{
												OFFSET -40.960209 0.000000 0.000000
												CHANNELS 3 Xrotation Yrotation Zrotation
												End Site
												{
													OFFSET 0 0 0
												}
											}
										}
									}
								}
							}
						}
					}
				}
			}
		}
	}
}
MOTION
Frames: 5
Frame Time: 0.03333333
0.096953 99.794838 0.851101 0.000000 0.000000 0.000000 -6.727180 -51.196718 -0.266620 -23.705104 12.998997 18.141262 51.040235 -0.353109 4.931993 -21.402825 -7.586739 -14.906531 -4.703585 0.334253 -0.118261 0.000000 0.000000 0.000000 -7.796284 -49.021634 0.110286 -27.290591 -13.142551 -31.851836 54.998667 -4.237214 -7.509746 -20.047787 -5.954986 19.164689 -3.617663 0.705495 0.253720 0.000000 0.000000 0.000000 -6.063510 -49.869260 -0.861066 9.895739 7.610087 -2.943915 1.337361 1.505887 -0.569770 0.531213 -1.274509 1.364279 0.000000 0.000000 0.000000 0.669412 2.142114 -0.459605 3.493884 14.185281 6.410007 6.733162 19.336498 -2.275453 0.000000 0.000000 0.000000 3.169317 1.278183 -0.131960 1.300900 3.517689 -7.189479 -5.352104 -3.940988 -3.888890 -50.436005 6.327683 -46.545441 179.439943 -72.098917 -178.124462 0.000000 0.000000 0.000000 3.146151 1.888122 -0.263595 3.891296 11.056993 -5.446031 0.522444 -4.446194 -1.786660 -49.715697 20.375038 87.058486 176.886190 72.242733 -176.780322 0.000000 0.000000 0.000000 
0.485489 98.216988 2.491108 0.000000 0.000000 0.000000 -7.723946 -52.532918 -0.983060 -25.481310 12.621905 17.907947 53.038574 0.808438 4.309716 -20.962651 -7.183150 -14.888936 -5.749331 0.329281 -0.303244 0.000000 0.000000 0.000000 -9.044025 -50.175290 -0.644534 -27.651201 -12.490301 -32.430035 56.451418 -3.685752 -7.443048 -21.770443 -6.115597 19.548884 -3.288949 0.569207 0.246516 0.000000 0.000000 0.000000 -6.230311 -50.397910 -0.910570 10.659408 7.823258 -2.808810 1.496155 1.416160 -0.552698 0.766419 -1.147476 1.386191 0.000000 0.000000 0.000000 0.704910 2.048317 -0.526256 3.619165 14.108938 6.253814 6.816516 19.465771 -2.173509 0.000000 0.000000 0.000000 3.120031 1.250924 -0.079718 1.216578 3.247513 -7.585762 -3.318381 -5.633415 -3.333123 -52.637659 6.478301 -47.268929 176.194551 -72.241531 178.236027 0.000000 0.000000 0.000000 3.185417 1.820494 -0.289895 3.994583 11.734837 -5.412800 0.956114 -4.513757 -0.896618 -50.987256 22.524362 87.253877 177.321765 72.939269 -176.992003 0.000000 0.000000 0.000000 
0.652517 95.154831 4.658249 0.000000 0.000000 0.000000 -8.650701 -53.885978 -1.829499 -28.969325 12.242236 18.691115 58.623206 0.725355 3.263345 -20.643550 -8.343567 -16.201472 -7.253829 -0.024318 0.864318 0.000000 0.000000 0.000000 -9.871519 -51.086936 -1.339163 -27.776563 -10.923745 -32.989879 58.746375 -2.804898 -7.532462 -23.534166 -6.715536 20.502203 -2.663292 0.451017 0.167645 0.000000 0.000000 0.000000 -6.807452 -51.364023 -1.270862 11.859888 8.339614 -2.289969 1.364249 1.324052 -0.735945 0.730911 -0.887784 1.093555 0.000000 0.000000 0.000000 0.318154 1.881451 -0.753432 3.163993 14.212778 6.104496 7.459128 19.545189 -1.883157 0.000000 0.000000 0.000000 2.795379 1.188472 -0.154854 1.063994 3.007597 -8.329369 -1.787087 -6.163668 -2.402780 -53.362639 6.276807 -47.810884 171.406753 -72.821776 173.058921 0.000000 0.000000 0.000000 2.761892 1.663673 -0.454302 4.022604 12.541745 -5.185288 0.764029 -3.886065 -0.477685 -52.005743 23.529870 86.529460 178.031189 74.054277 -177.988910 0.000000 0.000000 0.000000 
0.796986 91.220055 7.201267 0.000000 0.000000 0.000000 -9.412475 -55.091541 -2.597955 -33.879067 11.243419 20.531491 67.058797 -1.115595 2.463607 -20.015024 -10.798045 -19.040708 -7.800441 -0.538904 2.592734 0.000000 0.000000 0.000000 -10.076780 -51.804956 -1.720075 -28.001426 -8.830550 -33.679755 61.194704 -1.524796 -7.807132 -24.740887 -7.431517 21.844612 -2.033797 0.385962 0.003204 0.000000 0.000000 0.000000 -7.616981 -52.764161 -1.836142 13.351229 9.032652 -1.511934 1.034930 1.317406 -1.083280 0.614297 -0.109000 0.785338 0.000000 0.000000 0.000000 -0.405605 1.766215 -1.066024 2.060289 14.465140 5.991319 8.340972 19.831686 -1.623206 0.000000 0.000000 0.000000 2.205330 1.147340 -0.328484 0.903596 3.049412 -9.131399 -0.557471 -5.392562 -1.194755 -51.923518 7.000065 -47.390007 167.552846 -72.727800 168.933528 0.000000 0.000000 0.000000 1.918640 1.502164 -0.751735 3.938560 13.317283 -4.962315 0.517708 -2.704830 -0.388486 -52.710445 23.170923 85.140876 179.748517 75.160331 179.542751 0.000000 0.000000 0.000000 
1.256643 87.109970 9.648125 0.000000 0.000000 0.000000 -9.897913 -56.407124 -3.064477 -39.352186 9.012716 22.967751 75.775758 -3.810706 2.184630 -18.928032 -13.877245 -22.100028 -7.275256 -0.994714 4.026284 0.000000 0.000000 0.000000 -10.139315 -52.485817 -1.871738 -28.855312 -6.277118 -34.867136 63.298621 0.187667 -8.166366 -25.139732 -7.785868 23.019139 -1.012604 0.394374 -0.156226 0.000000 0.000000 0.000000 -8.220577 -54.483224 -2.233820 14.953992 9.619070 -0.652934 0.556286 1.403084 -1.529730 0.523659 0.581306 0.514715 0.000000 0.000000 0.000000 -1.236527 1.773039 -1.390091 0.553738 14.947068 5.864054 9.042696 20.609529 -1.635515 0.000000 0.000000 0.000000 1.424791 1.175115 -0.563980 0.753590 3.440832 -9.786806 0.276327 -3.856925 0.580494 -48.406927 9.667296 -45.661201 167.949912 -70.613276 169.210137 0.000000 0.000000 0.000000 0.805843 1.370865 -1.147873 3.680783 13.827265 -5.036723 0.399153 -1.772216 -0.334707 -53.338498 22.510977 83.925881 -177.445624 76.099058 175.692737 0.000000 0.000000 0.000000 
